<?xml version="1.0" encoding="utf-8"?>
<!-- Metamask Fox SVG (simplified for web use) -->
<svg width="32" height="32" viewBox="0 0 32 32" fill="none" xmlns="http://www.w3.org/2000/svg">
  <g>
    <polygon fill="#E2761B" points="27.6,3.2 17.5,10.5 19.4,6.2 "/>
    <polygon fill="#E4761B" points="4.4,3.2 12.5,10.6 10.7,6.2 "/>
    <polygon fill="#E4761B" points="24.7,22.2 22.1,25.7 27.1,27.1 28.5,22.3 "/>
    <polygon fill="#E4761B" points="3.5,22.3 4.9,27.1 9.9,25.7 7.3,22.2 "/>
    <polygon fill="#763D16" points="13.2,14.6 12.1,16.3 17.8,16.3 16.7,14.6 15.5,13.7 "/>
    <polygon fill="#763D16" points="9.9,25.7 12.1,24.1 10.1,22.6 "/>
    <polygon fill="#763D16" points="19.9,24.1 22.1,25.7 21.9,22.6 "/>
    <polygon fill="#F6851B" points="21.9,22.6 22.1,25.7 19.9,24.1 "/>
    <polygon fill="#F6851B" points="10.1,22.6 12.1,24.1 9.9,25.7 "/>
    <polygon fill="#F6851B" points="16,20.2 19.9,24.1 16,22.6 12.1,24.1 "/>
    <polygon fill="#F6851B" points="16,20.2 12.1,24.1 16,22.6 19.9,24.1 "/>
    <polygon fill="#C0AD9E" points="16,22.6 19.9,24.1 16,25.2 12.1,24.1 "/>
    <polygon fill="#161616" points="12.1,16.3 13.2,14.6 15.5,13.7 16.7,14.6 17.8,16.3 "/>
    <polygon fill="#763D16" points="16,20.2 12.1,24.1 16,22.6 19.9,24.1 "/>
  </g>
</svg> 